<mxfile host="app.diagrams.net" modified="2024-05-01T04:03:10.151Z" agent="Mozilla/5.0 (Windows NT 10.0; Win64; x64) AppleWebKit/537.36 (KHTML, like Gecko) Chrome/124.0.0.0 Safari/537.36" etag="zSsyhYt6rh5mL5IrAv4V" version="24.2.0" type="github">
  <diagram name="Page-1" id="yde_nknyFZTs89ERzuP-">
    <mxGraphModel dx="1194" dy="708" grid="1" gridSize="10" guides="1" tooltips="1" connect="1" arrows="1" fold="1" page="1" pageScale="1" pageWidth="850" pageHeight="1100" math="0" shadow="0">
      <root>
        <mxCell id="0" />
        <mxCell id="1" parent="0" />
        <mxCell id="0aeEW_j48yzcu3fb-fOq-13" value="" style="edgeStyle=orthogonalEdgeStyle;rounded=0;orthogonalLoop=1;jettySize=auto;html=1;entryX=0;entryY=0.5;entryDx=0;entryDy=0;entryPerimeter=0;" edge="1" parent="1" source="0aeEW_j48yzcu3fb-fOq-1" target="0aeEW_j48yzcu3fb-fOq-5">
          <mxGeometry relative="1" as="geometry">
            <mxPoint x="319.75" y="291.5" as="targetPoint" />
          </mxGeometry>
        </mxCell>
        <mxCell id="0aeEW_j48yzcu3fb-fOq-1" value="Splunk Server&lt;div&gt;IP: 192.168.10.10&lt;/div&gt;" style="outlineConnect=0;dashed=0;verticalLabelPosition=top;verticalAlign=bottom;align=center;html=1;shape=mxgraph.aws3.traditional_server;fillColor=#7D7C7C;gradientColor=none;labelPosition=center;" vertex="1" parent="1">
          <mxGeometry x="210" y="260" width="46.5" height="63" as="geometry" />
        </mxCell>
        <mxCell id="0aeEW_j48yzcu3fb-fOq-14" value="" style="edgeStyle=orthogonalEdgeStyle;rounded=0;orthogonalLoop=1;jettySize=auto;html=1;" edge="1" parent="1" source="0aeEW_j48yzcu3fb-fOq-2" target="0aeEW_j48yzcu3fb-fOq-5">
          <mxGeometry relative="1" as="geometry" />
        </mxCell>
        <mxCell id="0aeEW_j48yzcu3fb-fOq-21" value="" style="edgeStyle=orthogonalEdgeStyle;rounded=0;orthogonalLoop=1;jettySize=auto;html=1;dashed=1;" edge="1" parent="1" source="0aeEW_j48yzcu3fb-fOq-2" target="0aeEW_j48yzcu3fb-fOq-1">
          <mxGeometry relative="1" as="geometry" />
        </mxCell>
        <mxCell id="0aeEW_j48yzcu3fb-fOq-2" value="Active Directory&lt;div&gt;IP: 192.168.10.20&lt;/div&gt;&lt;div&gt;Splunk Universal Forwarder&lt;/div&gt;&lt;div&gt;Sysmon&lt;/div&gt;&lt;div&gt;&lt;br&gt;&lt;/div&gt;" style="outlineConnect=0;dashed=0;verticalLabelPosition=bottom;verticalAlign=top;align=center;html=1;shape=mxgraph.aws3.traditional_server;fillColor=#7D7C7C;gradientColor=none;" vertex="1" parent="1">
          <mxGeometry x="210" y="400" width="46.5" height="63" as="geometry" />
        </mxCell>
        <mxCell id="0aeEW_j48yzcu3fb-fOq-9" value="" style="edgeStyle=orthogonalEdgeStyle;rounded=0;orthogonalLoop=1;jettySize=auto;html=1;entryX=0.5;entryY=1;entryDx=0;entryDy=0;entryPerimeter=0;" edge="1" parent="1" source="0aeEW_j48yzcu3fb-fOq-3" target="0aeEW_j48yzcu3fb-fOq-5">
          <mxGeometry relative="1" as="geometry" />
        </mxCell>
        <mxCell id="0aeEW_j48yzcu3fb-fOq-20" value="" style="edgeStyle=orthogonalEdgeStyle;rounded=0;orthogonalLoop=1;jettySize=auto;html=1;entryX=0;entryY=0.5;entryDx=0;entryDy=0;entryPerimeter=0;dashed=1;" edge="1" parent="1" source="0aeEW_j48yzcu3fb-fOq-3" target="0aeEW_j48yzcu3fb-fOq-1">
          <mxGeometry relative="1" as="geometry">
            <mxPoint x="310" y="527.5" as="targetPoint" />
            <Array as="points">
              <mxPoint x="120" y="573" />
              <mxPoint x="120" y="292" />
            </Array>
          </mxGeometry>
        </mxCell>
        <mxCell id="0aeEW_j48yzcu3fb-fOq-3" value="Windows 10&lt;div&gt;IP: DHCP&lt;/div&gt;&lt;div&gt;Splunk Universal Forwarder&amp;nbsp;&lt;/div&gt;&lt;div&gt;Sysmon&lt;/div&gt;&lt;div&gt;Atomic Red Team&lt;/div&gt;" style="verticalLabelPosition=bottom;html=1;verticalAlign=top;align=center;strokeColor=none;fillColor=#00BEF2;shape=mxgraph.azure.computer;pointerEvents=1;" vertex="1" parent="1">
          <mxGeometry x="375" y="551" width="50" height="45" as="geometry" />
        </mxCell>
        <mxCell id="0aeEW_j48yzcu3fb-fOq-11" value="" style="edgeStyle=orthogonalEdgeStyle;rounded=0;orthogonalLoop=1;jettySize=auto;html=1;entryX=1;entryY=0.5;entryDx=0;entryDy=0;entryPerimeter=0;" edge="1" parent="1" source="0aeEW_j48yzcu3fb-fOq-4" target="0aeEW_j48yzcu3fb-fOq-5">
          <mxGeometry relative="1" as="geometry">
            <mxPoint x="480" y="375" as="targetPoint" />
          </mxGeometry>
        </mxCell>
        <mxCell id="0aeEW_j48yzcu3fb-fOq-4" value="Kali Linux&lt;div&gt;IP: 192.168.10.250&lt;/div&gt;" style="verticalLabelPosition=bottom;html=1;verticalAlign=top;align=center;strokeColor=#b85450;fillColor=#f8cecc;shape=mxgraph.azure.computer;pointerEvents=1;" vertex="1" parent="1">
          <mxGeometry x="560" y="352.5" width="50" height="45" as="geometry" />
        </mxCell>
        <mxCell id="0aeEW_j48yzcu3fb-fOq-15" value="" style="edgeStyle=orthogonalEdgeStyle;rounded=0;orthogonalLoop=1;jettySize=auto;html=1;" edge="1" parent="1" source="0aeEW_j48yzcu3fb-fOq-5" target="0aeEW_j48yzcu3fb-fOq-7">
          <mxGeometry relative="1" as="geometry" />
        </mxCell>
        <mxCell id="0aeEW_j48yzcu3fb-fOq-5" value="" style="sketch=0;points=[[0.015,0.015,0],[0.985,0.015,0],[0.985,0.985,0],[0.015,0.985,0],[0.25,0,0],[0.5,0,0],[0.75,0,0],[1,0.25,0],[1,0.5,0],[1,0.75,0],[0.75,1,0],[0.5,1,0],[0.25,1,0],[0,0.75,0],[0,0.5,0],[0,0.25,0]];verticalLabelPosition=bottom;html=1;verticalAlign=top;aspect=fixed;align=center;pointerEvents=1;shape=mxgraph.cisco19.rect;prIcon=l2_switch;fillColor=#FAFAFA;strokeColor=#005073;" vertex="1" parent="1">
          <mxGeometry x="375" y="350" width="50" height="50" as="geometry" />
        </mxCell>
        <mxCell id="0aeEW_j48yzcu3fb-fOq-17" value="" style="edgeStyle=orthogonalEdgeStyle;rounded=0;orthogonalLoop=1;jettySize=auto;html=1;" edge="1" parent="1" source="0aeEW_j48yzcu3fb-fOq-7" target="0aeEW_j48yzcu3fb-fOq-8">
          <mxGeometry relative="1" as="geometry">
            <mxPoint x="400" y="155" as="targetPoint" />
          </mxGeometry>
        </mxCell>
        <mxCell id="0aeEW_j48yzcu3fb-fOq-7" value="" style="sketch=0;points=[[0.5,0,0],[1,0.5,0],[0.5,1,0],[0,0.5,0],[0.145,0.145,0],[0.8555,0.145,0],[0.855,0.8555,0],[0.145,0.855,0]];verticalLabelPosition=bottom;html=1;verticalAlign=top;aspect=fixed;align=center;pointerEvents=1;shape=mxgraph.cisco19.rect;prIcon=router;fillColor=#FAFAFA;strokeColor=#005073;" vertex="1" parent="1">
          <mxGeometry x="375" y="220" width="50" height="50" as="geometry" />
        </mxCell>
        <mxCell id="0aeEW_j48yzcu3fb-fOq-8" value="Internet" style="html=1;verticalLabelPosition=middle;align=center;labelBackgroundColor=#ffffff;verticalAlign=middle;strokeWidth=2;strokeColor=#0080F0;shadow=0;dashed=0;shape=mxgraph.ios7.icons.cloud;labelPosition=center;" vertex="1" parent="1">
          <mxGeometry x="430" y="80" width="100" height="50" as="geometry" />
        </mxCell>
        <mxCell id="0aeEW_j48yzcu3fb-fOq-18" value="Domain: AD_Test&lt;div&gt;Network: 192.168.10.0/24&lt;/div&gt;&lt;div&gt;Splunk Server: 192.168.10.10&lt;/div&gt;&lt;div&gt;Active Directory: 192.168.10.20&lt;/div&gt;&lt;div&gt;Threat: 192.168.10.250&lt;/div&gt;" style="text;html=1;align=center;verticalAlign=middle;resizable=0;points=[];autosize=1;strokeColor=none;fillColor=none;fontStyle=1" vertex="1" parent="1">
          <mxGeometry x="90" y="50" width="190" height="90" as="geometry" />
        </mxCell>
      </root>
    </mxGraphModel>
  </diagram>
</mxfile>
